<?xml version="1.0" encoding="UTF-8" standalone="no"?>
<svg
   xmlns:dc="http://purl.org/dc/elements/1.1/"
   xmlns:cc="http://creativecommons.org/ns#"
   xmlns:rdf="http://www.w3.org/1999/02/22-rdf-syntax-ns#"
   xmlns:svg="http://www.w3.org/2000/svg"
   xmlns="http://www.w3.org/2000/svg"
   viewBox="0 0 373.33334 177.16"
   height="177.16"
   width="373.33334"
   xml:space="preserve"
   id="svg2"
   version="1.1"><metadata
     id="metadata8"><rdf:RDF><cc:Work
         rdf:about=""><dc:format>image/svg+xml</dc:format><dc:type
           rdf:resource="http://purl.org/dc/dcmitype/StillImage" /></cc:Work></rdf:RDF></metadata><defs
     id="defs6" /><g
     transform="matrix(1.3333333,0,0,-1.3333333,0,177.16)"
     id="g10"><g
       transform="scale(0.1)"
       id="g12"><path
         id="path14"
         style="fill:#265096;fill-opacity:1;fill-rule:nonzero;stroke:none"
         d="M 0,741.125 H 44.6133 V 387.086 H 267.09 V 345.863 H 0 v 395.262" /><path
         id="path16"
         style="fill:#265096;fill-opacity:1;fill-rule:nonzero;stroke:none"
         d="M 605.93,490.973 516.145,692.004 425.797,490.973 Z M 495.816,743.941 h 41.786 L 717.734,345.863 H 669.73 L 623.438,450.316 H 408.285 L 361.422,345.863 h -45.738 l 180.132,398.078" /><path
         id="path18"
         style="fill:#265096;fill-opacity:1;fill-rule:nonzero;stroke:none"
         d="M 795.719,741.125 H 837.5 L 1086.52,424.324 V 741.125 H 1130 V 345.863 h -35.58 l -255.225,324.11 v -324.11 h -43.476 v 395.262" /><path
         id="path20"
         style="fill:#265096;fill-opacity:1;fill-rule:nonzero;stroke:none"
         d="M 1286.47,699.902 V 387.086 h 92.6 c 99.95,0 163.76,67.742 163.76,155.273 v 1.121 c 0,87.536 -63.81,156.422 -163.76,156.422 z m -44.61,41.223 h 137.21 c 124.24,0 210.06,-85.266 210.06,-196.52 v -1.125 c 0,-111.23 -85.82,-197.617 -210.06,-197.617 h -137.21 v 395.262" /><path
         id="path22"
         style="fill:#265096;fill-opacity:1;fill-rule:nonzero;stroke:none"
         d="m 1816.21,340.203 c -30.13,0 -59.67,5.188 -88.66,15.527 -29,10.348 -55.34,26.274 -79.07,47.731 l 51.39,61.559 c 18.07,-14.684 36.61,-26.368 55.63,-35.016 19.01,-8.672 39.82,-13.008 62.41,-13.008 18.06,0 32.09,3.313 42.07,9.895 9.97,6.582 14.97,15.722 14.97,27.386 v 1.145 c 0,5.637 -1.04,10.625 -3.11,14.953 -2.09,4.316 -6.05,8.379 -11.9,12.141 -5.86,3.761 -13.98,7.527 -24.34,11.293 -10.39,3.765 -23.89,7.722 -40.5,11.859 -20.02,4.891 -38.12,10.367 -54.36,16.398 -16.24,6.008 -30.01,13.438 -41.32,22.305 -11.33,8.828 -20.12,19.844 -26.35,33.027 -6.22,13.161 -9.34,29.555 -9.34,49.129 v 1.133 c 0,18.07 3.37,34.348 10.09,48.856 6.74,14.492 16.18,27 28.34,37.55 12.16,10.539 26.68,18.633 43.56,24.278 16.87,5.66 35.47,8.476 55.81,8.476 28.98,0 55.62,-4.324 79.9,-12.988 24.3,-8.664 46.6,-21.094 66.94,-37.269 l -45.18,-65.508 c -17.7,12.035 -35.02,21.543 -51.96,28.511 -16.95,6.965 -33.88,10.454 -50.82,10.454 -16.95,0 -29.66,-3.301 -38.13,-9.883 -8.48,-6.59 -12.71,-14.789 -12.71,-24.571 v -1.125 c 0,-6.414 1.24,-11.961 3.68,-16.66 2.46,-4.718 6.88,-8.957 13.3,-12.718 6.42,-3.762 15.19,-7.333 26.35,-10.723 11.13,-3.387 25.18,-7.328 42.19,-11.86 20,-5.285 37.83,-11.191 53.49,-17.773 15.67,-6.621 28.87,-14.504 39.65,-23.727 10.76,-9.242 18.88,-20.058 24.34,-32.472 5.48,-12.434 8.22,-27.313 8.22,-44.613 v -1.141 c 0,-19.59 -3.55,-36.988 -10.67,-52.242 -7.11,-15.231 -17.02,-28.035 -29.73,-38.403 -12.73,-10.367 -27.9,-18.265 -45.54,-23.726 -17.63,-5.438 -37.18,-8.18 -58.64,-8.18" /><path
         id="path24"
         style="fill:#265096;fill-opacity:1;fill-rule:nonzero;stroke:none"
         d="m 2036.45,741.172 h 297.63 V 663.805 H 2122.3 v -80.18 h 186.36 V 506.238 H 2122.3 v -83.015 h 214.59 v -77.36 h -300.44 v 395.309" /><path
         id="path26"
         style="fill:#265096;fill-opacity:1;fill-rule:nonzero;stroke:none"
         d="m 2641.87,511.324 -52.51,128.192 -52.54,-128.192 z m -91.49,232.68 h 80.2 L 2800,345.863 h -90.92 l -36.16,88.653 h -167.15 l -36.15,-88.653 h -88.67 l 169.43,398.141" /><path
         id="path28"
         style="fill:#a2a290;fill-opacity:1;fill-rule:nonzero;stroke:none"
         d="m 691.52,148.77 h 34.57 l 30.387,-99.3091 32.894,99.7381 h 27.656 l 32.911,-99.7381 30.375,99.3091 h 33.734 L 863.965,1.07031 h -28.07 L 802.781,97.0313 769.68,1.07031 H 741.598 L 691.52,148.77" /><path
         id="path30"
         style="fill:#a2a290;fill-opacity:1;fill-rule:nonzero;stroke:none"
         d="m 970.836,148.77 h 32.274 V 2.08203 H 970.836 V 148.77" /><path
         id="path32"
         style="fill:#a2a290;fill-opacity:1;fill-rule:nonzero;stroke:none"
         d="m 1136.17,77.5195 c 7.96,0 14.07,1.8907 18.33,5.6797 4.26,3.7617 6.39,8.7891 6.39,15.0899 v 0.4023 c 0,6.9886 -2.24,12.2306 -6.7,15.7186 -4.47,3.512 -10.69,5.238 -18.65,5.238 h -32.06 V 77.5195 Z M 1071.2,148.77 h 67.06 c 18.58,0 32.83,-4.969 42.75,-14.879 8.38,-8.371 12.57,-19.559 12.57,-33.512 v -0.4298 c 0,-11.8672 -2.91,-21.5508 -8.7,-29.0078 -5.79,-7.4922 -13.38,-12.9726 -22.73,-16.4531 l 35.83,-52.40627 h -37.72 l -31.43,46.94927 h -0.41 -24.94 V 2.08203 H 1071.2 V 148.77" /><path
         id="path34"
         style="fill:#a2a290;fill-opacity:1;fill-rule:nonzero;stroke:none"
         d="m 1254.13,148.77 h 110.43 v -28.688 h -78.58 v -29.75 h 69.15 V 61.6016 h -69.15 V 30.8203 h 79.63 V 2.08203 H 1254.13 V 148.77" /><path
         id="path36"
         style="fill:#a2a290;fill-opacity:1;fill-rule:nonzero;stroke:none"
         d="m 1425.95,148.77 h 32.28 V 31.2188 h 73.12 V 2.08203 h -105.4 V 148.77" /><path
         id="path38"
         style="fill:#a2a290;fill-opacity:1;fill-rule:nonzero;stroke:none"
         d="m 1587.08,148.77 h 110.42 v -28.688 h -78.58 v -29.75 h 69.17 V 61.6016 h -69.17 V 30.8203 h 79.63 V 2.08203 H 1587.08 V 148.77" /><path
         id="path40"
         style="fill:#a2a290;fill-opacity:1;fill-rule:nonzero;stroke:none"
         d="m 1811.28,0 c -11.17,0 -22.12,1.92969 -32.89,5.76172 -10.75,3.84766 -20.53,9.74998 -29.34,17.70708 l 19.08,22.832 c 6.7,-5.4414 13.57,-9.7617 20.63,-12.9688 7.06,-3.2226 14.78,-4.8437 23.15,-4.8437 6.72,0 11.92,1.2226 15.63,3.6719 3.69,2.4414 5.54,5.8281 5.54,10.1718 v 0.4297 c 0,2.0899 -0.38,3.9375 -1.15,5.5586 -0.76,1.5781 -2.24,3.0899 -4.41,4.4883 -2.17,1.3711 -5.18,2.8008 -9.04,4.1797 -3.85,1.4101 -8.85,2.8828 -15.02,4.4101 -7.43,1.8204 -14.15,3.8399 -20.18,6.0704 -6.01,2.2421 -11.13,5.0117 -15.33,8.2812 -4.2,3.2891 -7.45,7.3711 -9.77,12.25 -2.31,4.8906 -3.47,10.9805 -3.47,18.25 v 0.422 c 0,6.687 1.26,12.738 3.74,18.098 2.51,5.402 6.01,10.05 10.52,13.96 4.52,3.891 9.9,6.891 16.16,9 6.27,2.11 13.17,3.129 20.71,3.129 10.76,0 20.63,-1.597 29.66,-4.808 9.01,-3.199 17.28,-7.821 24.83,-13.832 l -16.77,-24.309 c -6.56,4.488 -12.99,7.988 -19.27,10.602 -6.29,2.558 -12.58,3.859 -18.86,3.859 -6.28,0 -11.02,-1.223 -14.15,-3.66 -3.15,-2.449 -4.71,-5.481 -4.71,-9.121 v -0.418 c 0,-2.371 0.46,-4.422 1.36,-6.192 0.91,-1.73 2.56,-3.3081 4.95,-4.6909 2.36,-1.418 5.64,-2.7383 9.75,-3.9805 4.14,-1.2578 9.36,-2.7383 15.67,-4.4102 7.41,-1.9765 14.03,-4.1601 19.84,-6.5976 5.82,-2.4492 10.72,-5.3789 14.72,-8.8125 3.98,-3.4297 6.99,-7.4297 9.02,-12.0391 2.04,-4.6094 3.06,-10.1289 3.06,-16.5586 v -0.4101 c 0,-7.2696 -1.32,-13.7422 -3.96,-19.3907 -2.64,-5.6601 -6.31,-10.3984 -11.04,-14.25 C 1845.23,8 1839.6,5.05859 1833.06,3.03125 1826.51,1.01953 1819.26,0 1811.28,0" /><path
         id="path42"
         style="fill:#a2a290;fill-opacity:1;fill-rule:nonzero;stroke:none"
         d="m 1976.83,0 c -11.18,0 -22.13,1.92969 -32.89,5.76172 -10.76,3.84766 -20.54,9.74998 -29.35,17.70708 l 19.08,22.832 c 6.7,-5.4414 13.58,-9.7617 20.63,-12.9688 7.06,-3.2226 14.78,-4.8437 23.16,-4.8437 6.71,0 11.92,1.2226 15.62,3.6719 3.69,2.4414 5.54,5.8281 5.54,10.1718 v 0.4297 c 0,2.0899 -0.38,3.9375 -1.14,5.5586 -0.78,1.5781 -2.25,3.0899 -4.42,4.4883 -2.17,1.3711 -5.18,2.8008 -9.04,4.1797 -3.84,1.4101 -8.85,2.8828 -15.02,4.4101 -7.43,1.8204 -14.15,3.8399 -20.18,6.0704 -6.01,2.2421 -11.13,5.0117 -15.33,8.2812 -4.19,3.2891 -7.45,7.3711 -9.77,12.25 -2.3,4.8906 -3.47,10.9805 -3.47,18.25 v 0.422 c 0,6.687 1.26,12.738 3.74,18.098 2.51,5.402 6.01,10.05 10.53,13.96 4.51,3.891 9.89,6.891 16.15,9 6.27,2.11 13.17,3.129 20.72,3.129 10.75,0 20.63,-1.597 29.65,-4.808 9.01,-3.199 17.29,-7.821 24.83,-13.832 L 2009.1,107.91 c -6.56,4.488 -12.99,7.988 -19.27,10.602 -6.29,2.558 -12.57,3.859 -18.86,3.859 -6.28,0 -11.01,-1.223 -14.15,-3.66 -3.15,-2.449 -4.71,-5.481 -4.71,-9.121 v -0.418 c 0,-2.371 0.46,-4.422 1.36,-6.192 0.91,-1.73 2.57,-3.3081 4.95,-4.6909 2.37,-1.418 5.64,-2.7383 9.75,-3.9805 4.14,-1.2578 9.36,-2.7383 15.67,-4.4102 7.41,-1.9765 14.03,-4.1601 19.84,-6.5976 5.82,-2.4492 10.72,-5.3789 14.72,-8.8125 3.98,-3.4297 7,-7.4297 9.03,-12.0391 2.03,-4.6094 3.05,-10.1289 3.05,-16.5586 v -0.4101 c 0,-7.2696 -1.32,-13.7422 -3.96,-19.3907 -2.64,-5.6601 -6.31,-10.3984 -11.04,-14.25 C 2010.78,8 2005.14,5.05859 1998.6,3.03125 1992.06,1.01953 1984.8,0 1976.83,0" /><path
         id="path44"
         style="fill:#a2a290;fill-opacity:1;fill-rule:nonzero;stroke:none"
         d="m 1263.92,1328.69 c -15.69,0 -28.45,-12.77 -28.45,-28.44 V 952.348 c 0,-15.672 12.76,-28.442 28.45,-28.442 15.68,0 28.44,12.77 28.44,28.442 v 347.902 c 0,15.67 -12.76,28.44 -28.44,28.44" /><path
         id="path46"
         style="fill:#a2a290;fill-opacity:1;fill-rule:nonzero;stroke:none"
         d="m 1157.95,1328.69 c -15.68,0 -28.44,-12.77 -28.44,-28.44 V 952.348 c 0,-15.672 12.76,-28.442 28.44,-28.442 15.69,0 28.45,12.77 28.45,28.442 v 347.902 c 0,15.67 -12.76,28.44 -28.45,28.44" /><path
         id="path48"
         style="fill:#a2a290;fill-opacity:1;fill-rule:nonzero;stroke:none"
         d="m 1052,1328.69 c -15.69,0 -28.45,-12.77 -28.45,-28.44 V 952.348 c 0,-15.672 12.76,-28.442 28.45,-28.442 15.68,0 28.44,12.77 28.44,28.442 v 347.902 c 0,15.67 -12.76,28.44 -28.44,28.44" /><path
         id="path50"
         style="fill:#a2a290;fill-opacity:1;fill-rule:nonzero;stroke:none"
         d="m 946.047,1328.69 c -15.688,0 -28.453,-12.77 -28.453,-28.44 V 952.348 c 0,-15.672 12.765,-28.442 28.453,-28.442 15.687,0 28.445,12.77 28.445,28.442 v 347.902 c 0,15.67 -12.758,28.44 -28.445,28.44" /><path
         id="path52"
         style="fill:#265096;fill-opacity:1;fill-rule:nonzero;stroke:none"
         d="m 1714.12,1222.56 c -9.91,0 -19.94,0.92 -30.08,2.75 -30.18,5.49 -54.2,18.85 -77.43,31.78 -26.49,14.73 -51.51,28.66 -84.33,29.72 -58.87,1.57 -106.87,-37.6 -107.35,-38 -8.62,-7.2 -21.48,-6.08 -28.7,2.51 -7.23,8.61 -6.16,21.42 2.43,28.67 2.42,2.04 59.98,49.8 134.95,47.57 42.68,-1.39 74.63,-19.17 102.82,-34.85 21.27,-11.83 41.36,-23.01 64.89,-27.28 41.81,-7.62 80.17,5.34 114.08,38.41 8.04,7.87 20.95,7.71 28.82,-0.36 7.86,-8.05 7.7,-20.96 -0.36,-28.82 -35.25,-34.39 -76.18,-52.1 -119.74,-52.1" /><path
         id="path54"
         style="fill:#265096;fill-opacity:1;fill-rule:nonzero;stroke:none"
         d="m 1714.12,1123.23 c -9.9,0 -19.94,0.91 -30.08,2.75 -30.18,5.48 -54.2,18.84 -77.44,31.77 -26.48,14.74 -51.5,28.66 -84.32,29.73 -58.53,1.66 -106.87,-37.61 -107.35,-38.01 -8.62,-7.2 -21.48,-6.08 -28.7,2.51 -7.23,8.61 -6.16,21.42 2.43,28.67 2.42,2.05 60.07,49.76 134.95,47.57 42.68,-1.38 74.63,-19.16 102.82,-34.84 21.27,-11.83 41.36,-23.01 64.89,-27.28 41.84,-7.62 80.18,5.33 114.08,38.41 8.04,7.87 20.95,7.71 28.82,-0.36 7.86,-8.06 7.7,-20.96 -0.36,-28.83 -35.25,-34.39 -76.18,-52.09 -119.74,-52.09" /><path
         id="path56"
         style="fill:#265096;fill-opacity:1;fill-rule:nonzero;stroke:none"
         d="m 1714.13,1023.89 c -9.91,0 -19.95,0.92 -30.09,2.75 -30.18,5.49 -54.21,18.85 -77.44,31.78 -26.49,14.73 -51.5,28.65 -84.32,29.72 -59.04,1.79 -106.87,-37.6 -107.35,-38 -8.62,-7.21 -21.48,-6.08 -28.7,2.5 -7.23,8.61 -6.16,21.43 2.43,28.68 2.42,2.04 60.07,49.9 134.95,47.57 42.68,-1.39 74.63,-19.16 102.82,-34.84 21.27,-11.83 41.36,-23.01 64.89,-27.28 41.83,-7.61 80.18,5.34 114.08,38.4 8.04,7.86 20.95,7.71 28.82,-0.36 7.86,-8.05 7.7,-20.96 -0.36,-28.83 -35.25,-34.39 -76.18,-52.09 -119.73,-52.09" /><path
         id="path58"
         style="fill:#265096;fill-opacity:1;fill-rule:nonzero;stroke:none"
         d="m 1714.12,924.555 c -9.91,0 -19.94,0.914 -30.08,2.754 -30.18,5.48 -54.2,18.843 -77.43,31.773 -26.49,14.734 -51.51,28.656 -84.33,29.727 -58.87,1.625 -106.87,-37.602 -107.35,-38.008 -8.62,-7.207 -21.48,-6.078 -28.7,2.504 -7.23,8.609 -6.16,21.422 2.43,28.675 2.42,2.043 60.33,49.77 134.95,47.57 42.68,-1.38 74.63,-19.16 102.82,-34.843 21.27,-11.832 41.36,-23.012 64.89,-27.281 41.81,-7.606 80.17,5.34 114.08,38.414 8.04,7.87 20.95,7.71 28.82,-0.36 7.86,-8.058 7.7,-20.964 -0.36,-28.832 -35.25,-34.386 -76.18,-52.085 -119.74,-52.093" /></g></g></svg>